<svg width="100" height="100" viewBox="0 0 100 100" fill="none" xmlns="http://www.w3.org/2000/svg">
<g clip-path="url(#clip0_26_384)">
<path d="M71.5417 100C70.9933 100.003 70.4497 99.898 69.942 99.6907C69.4344 99.4833 68.9727 99.1778 68.5833 98.7916L34.5417 64.75C32.6015 62.8147 31.0622 60.5157 30.012 57.9847C28.9617 55.4536 28.4211 52.7403 28.4211 50C28.4211 47.2597 28.9617 44.5463 30.012 42.0152C31.0622 39.4842 32.6015 37.1852 34.5417 35.25L68.5833 1.20829C68.9718 0.819798 69.433 0.511628 69.9406 0.301377C70.4482 0.0911251 70.9922 -0.0170898 71.5417 -0.0170898C72.0911 -0.0170898 72.6351 0.0911251 73.1427 0.301376C73.6503 0.511628 74.1115 0.819798 74.5 1.20829C74.8885 1.59679 75.1967 2.058 75.4069 2.56559C75.6172 3.07318 75.7254 3.61721 75.7254 4.16663C75.7254 4.71604 75.6172 5.26007 75.4069 5.76766C75.1967 6.27526 74.8885 6.73646 74.5 7.12496L40.4583 41.1666C38.1175 43.5104 36.8027 46.6874 36.8027 50C36.8027 53.3125 38.1175 56.4895 40.4583 58.8333L74.5 92.875C74.8905 93.2623 75.2005 93.7231 75.412 94.2309C75.6236 94.7386 75.7325 95.2832 75.7325 95.8333C75.7325 96.3833 75.6236 96.9279 75.412 97.4357C75.2005 97.9434 74.8905 98.4043 74.5 98.7916C74.1106 99.1778 73.6489 99.4833 73.1413 99.6907C72.6336 99.898 72.09 100.003 71.5417 100Z" fill="black"/>
</g>
<defs>
<clipPath id="clip0_26_384">
<rect width="100" height="100" fill="white"/>
</clipPath>
</defs>
</svg>
