<svg width="100" height="100" viewBox="0 0 100 100" fill="none" xmlns="http://www.w3.org/2000/svg">
<g clip-path="url(#clip0_26_390)">
<path d="M28.4583 100C29.0067 100.003 29.5503 99.898 30.058 99.6907C30.5656 99.4833 31.0273 99.1778 31.4167 98.7916L65.4583 64.75C67.3985 62.8147 68.9378 60.5157 69.988 57.9847C71.0383 55.4536 71.5789 52.7403 71.5789 50C71.5789 47.2597 71.0383 44.5463 69.988 42.0152C68.9378 39.4842 67.3985 37.1852 65.4583 35.25L31.4167 1.20829C31.0282 0.819798 30.567 0.511628 30.0594 0.301377C29.5518 0.0911251 29.0078 -0.0170898 28.4583 -0.0170898C27.9089 -0.0170898 27.3649 0.0911251 26.8573 0.301376C26.3497 0.511628 25.8885 0.819798 25.5 1.20829C25.1115 1.59679 24.8033 2.058 24.5931 2.56559C24.3828 3.07318 24.2746 3.61721 24.2746 4.16663C24.2746 4.71604 24.3828 5.26007 24.5931 5.76766C24.8033 6.27526 25.1115 6.73646 25.5 7.12496L59.5417 41.1666C61.8825 43.5104 63.1973 46.6874 63.1973 50C63.1973 53.3125 61.8825 56.4895 59.5417 58.8333L25.5 92.875C25.1095 93.2623 24.7995 93.7231 24.588 94.2309C24.3764 94.7386 24.2675 95.2832 24.2675 95.8333C24.2675 96.3833 24.3764 96.9279 24.588 97.4357C24.7995 97.9434 25.1095 98.4043 25.5 98.7916C25.8894 99.1778 26.3511 99.4833 26.8587 99.6907C27.3664 99.898 27.91 100.003 28.4583 100Z" fill="black"/>
</g>
<defs>
<clipPath id="clip0_26_390">
<rect width="100" height="100" fill="white" transform="matrix(-1 0 0 1 100 0)"/>
</clipPath>
</defs>
</svg>
