<svg width="50" height="51" viewBox="0 0 50 51" fill="none" xmlns="http://www.w3.org/2000/svg">
<path d="M39.5833 0.5H10.4167C7.65501 0.503609 5.00741 1.702 3.05462 3.83232C1.10184 5.96263 0.00330804 8.85092 0 11.8636L0 39.1364C0.00330804 42.1491 1.10184 45.0374 3.05462 47.1677C5.00741 49.298 7.65501 50.4964 10.4167 50.5H39.5833C42.345 50.4964 44.9926 49.298 46.9454 47.1677C48.8982 45.0374 49.9967 42.1491 50 39.1364V11.8636C49.9967 8.85092 48.8982 5.96263 46.9454 3.83232C44.9926 1.702 42.345 0.503609 39.5833 0.5V0.5ZM10.4167 5.04545H39.5833C40.8308 5.04813 42.049 5.45799 43.0812 6.22228C44.1133 6.98658 44.9122 8.07033 45.375 9.33409L29.4208 26.7409C28.2467 28.0166 26.6571 28.7329 25 28.7329C23.3429 28.7329 21.7533 28.0166 20.5792 26.7409L4.625 9.33409C5.08781 8.07033 5.88669 6.98658 6.91885 6.22228C7.951 5.45799 9.1692 5.04813 10.4167 5.04545V5.04545ZM39.5833 45.9545H10.4167C8.75906 45.9545 7.16935 45.2362 5.99725 43.9575C4.82515 42.6789 4.16667 40.9447 4.16667 39.1364V15.2727L17.6333 29.9545C19.5888 32.0824 22.238 33.2774 25 33.2774C27.762 33.2774 30.4112 32.0824 32.3667 29.9545L45.8333 15.2727V39.1364C45.8333 40.9447 45.1749 42.6789 44.0027 43.9575C42.8306 45.2362 41.2409 45.9545 39.5833 45.9545Z" fill="black"/>
</svg>
