<svg width="50" height="56" viewBox="0 0 50 56" fill="none" xmlns="http://www.w3.org/2000/svg">
<path d="M25 55.4998C22.9064 55.5097 20.8407 55.0572 18.9758 54.1801C17.1109 53.303 15.5012 52.0269 14.2815 50.4586C4.80607 38.4124 0 29.3565 0 23.5407C0 17.4299 2.63392 11.5694 7.32233 7.24847C12.0107 2.9275 18.3696 0.5 25 0.5C31.6304 0.5 37.9893 2.9275 42.6777 7.24847C47.3661 11.5694 50 17.4299 50 23.5407C50 29.3565 45.1939 38.4124 35.7185 50.4586C34.4988 52.0269 32.8891 53.303 31.0242 54.1801C29.1593 55.0572 27.0936 55.5097 25 55.4998V55.4998ZM25 5.50228C19.8096 5.50774 14.8335 7.41044 11.1633 10.793C7.4931 14.1755 5.4286 18.7617 5.42267 23.5453C5.42267 28.1512 10.1293 36.6686 18.6723 47.5278C19.3975 48.4485 20.349 49.1978 21.4488 49.7145C22.5486 50.2312 23.7655 50.5005 25 50.5005C26.2345 50.5005 27.4514 50.2312 28.5512 49.7145C29.651 49.1978 30.6024 48.4485 31.3277 47.5278C39.8707 36.6686 44.5773 28.1512 44.5773 23.5453C44.5714 18.7617 42.5069 14.1755 38.8367 10.793C35.1665 7.41044 30.1904 5.50774 25 5.50228V5.50228Z" fill="black"/>
<path d="M25.0964 9.63013C23.1294 9.63013 21.2065 10.1677 19.571 11.1749C17.9355 12.182 16.6608 13.6135 15.9081 15.2884C15.1554 16.9632 14.9584 18.8062 15.3421 20.5842C15.7259 22.3622 16.6731 23.9954 18.064 25.2773C19.4548 26.5591 21.2269 27.4321 23.1561 27.7858C25.0853 28.1394 27.085 27.9579 28.9023 27.2642C30.7195 26.5704 32.2728 25.3956 33.3656 23.8883C34.4584 22.381 35.0417 20.6088 35.0417 18.796C35.0417 16.3651 33.9938 14.0337 32.1287 12.3147C30.2636 10.5958 27.734 9.63013 25.0964 9.63013ZM25.0964 23.3789C24.1129 23.3789 23.1514 23.1102 22.3337 22.6066C21.5159 22.103 20.8786 21.3872 20.5022 20.5498C20.1259 19.7124 20.0274 18.7909 20.2193 17.9019C20.4111 17.0129 20.8847 16.1963 21.5802 15.5554C22.2756 14.9144 23.1616 14.478 24.1262 14.3011C25.0908 14.1243 26.0907 14.215 26.9993 14.5619C27.9079 14.9088 28.6846 15.4962 29.231 16.2499C29.7774 17.0035 30.069 17.8896 30.069 18.796C30.069 20.0115 29.5451 21.1772 28.6125 22.0366C27.68 22.8961 26.4152 23.3789 25.0964 23.3789Z" fill="black"/>
</svg>
