<svg width="50" height="51" viewBox="0 0 50 51" fill="none" xmlns="http://www.w3.org/2000/svg">
<path d="M27.046 2.59009C27.046 2.03665 27.2658 1.50587 27.6571 1.11453C28.0485 0.723187 28.5793 0.503332 29.1327 0.503332C34.6652 0.509408 39.9693 2.7099 43.8814 6.62202C47.7935 10.5341 49.9939 15.8384 50 21.3709C50 21.9244 49.7801 22.4552 49.3888 22.8465C48.9975 23.2378 48.4667 23.4577 47.9133 23.4577C47.3598 23.4577 46.8291 23.2378 46.4377 22.8465C46.0464 22.4552 45.8265 21.9244 45.8265 21.3709C45.8216 16.9449 44.0612 12.7016 40.9315 9.57193C37.8019 6.44226 33.5586 4.68183 29.1327 4.67685C28.5793 4.67685 28.0485 4.457 27.6571 4.06566C27.2658 3.67431 27.046 3.14354 27.046 2.59009V2.59009ZM29.1327 13.0239C31.3464 13.0239 33.4695 13.9033 35.0349 15.4687C36.6002 17.0341 37.4796 19.1572 37.4796 21.3709C37.4796 21.9244 37.6995 22.4552 38.0908 22.8465C38.4821 23.2378 39.0129 23.4577 39.5663 23.4577C40.1198 23.4577 40.6505 23.2378 41.0419 22.8465C41.4332 22.4552 41.6531 21.9244 41.6531 21.3709C41.6498 18.0513 40.3296 14.8686 37.9823 12.5212C35.635 10.1739 32.4523 8.85369 29.1327 8.85038C28.5793 8.85038 28.0485 9.07023 27.6571 9.46157C27.2658 9.85292 27.046 10.3837 27.046 10.9371C27.046 11.4906 27.2658 12.0214 27.6571 12.4127C28.0485 12.804 28.5793 13.0239 29.1327 13.0239V13.0239ZM48.1073 35.4336C49.3166 36.6463 49.9957 38.289 49.9957 40.0015C49.9957 41.7141 49.3166 43.3568 48.1073 44.5695L46.2084 46.7585C29.1181 63.1208 -12.4705 21.5421 3.6391 4.39723L6.03884 2.31047C7.25283 1.13495 8.88082 0.484654 10.5706 0.500275C12.2604 0.515896 13.8761 1.19618 15.0681 2.39394C15.1328 2.45863 18.9995 7.48146 18.9995 7.48146C20.1469 8.68683 20.7856 10.288 20.7828 11.9521C20.7801 13.6163 20.1362 15.2154 18.9849 16.417L16.5685 19.4553C17.9058 22.7046 19.8719 25.6577 22.354 28.1448C24.836 30.6319 27.785 32.604 31.0316 33.9479L34.0887 31.5168C35.2904 30.3664 36.8892 29.7232 38.5528 29.7209C40.2164 29.7185 41.817 30.3572 43.022 31.5043C43.022 31.5043 48.0426 35.3689 48.1073 35.4336ZM45.236 38.4678C45.236 38.4678 40.2424 34.626 40.1778 34.5614C39.7479 34.1351 39.167 33.8959 38.5616 33.8959C37.9562 33.8959 37.3753 34.1351 36.9454 34.5614C36.8891 34.6198 32.6801 37.9732 32.6801 37.9732C32.3965 38.199 32.0589 38.347 31.7007 38.4026C31.3425 38.4582 30.976 38.4195 30.6372 38.2904C26.4313 36.7244 22.6111 34.2728 19.4353 31.1017C16.2595 27.9305 13.8023 24.1138 12.2302 19.9102C12.0908 19.5668 12.0453 19.1925 12.0985 18.8258C12.1517 18.4591 12.3016 18.1131 12.5327 17.8235C12.5327 17.8235 15.8861 13.6124 15.9425 13.5581C16.3687 13.1282 16.6079 12.5473 16.6079 11.9419C16.6079 11.3365 16.3687 10.7556 15.9425 10.3257C15.8778 10.2631 12.0361 5.26532 12.0361 5.26532C11.5998 4.87407 11.0303 4.66453 10.4444 4.67966C9.85858 4.6948 9.3007 4.93345 8.88514 5.3467L6.4854 7.43347C-5.28794 21.5901 30.752 55.6314 43.1576 43.908L45.0586 41.7169C45.5041 41.3042 45.7717 40.7345 45.8048 40.1282C45.8379 39.5219 45.6339 38.9265 45.236 38.4678V38.4678Z" fill="black"/>
</svg>
