<svg width="50" height="50" viewBox="0 0 50 50" fill="none" xmlns="http://www.w3.org/2000/svg">
<g clip-path="url(#clip0_32_9)">
<path d="M46.4917 3.50833C42.9833 0 37.3354 0 26.0417 0H23.9583C12.6646 0 7.01667 0 3.50833 3.50833C0 7.01667 0 12.6646 0 23.9583V26.0417C0 37.3354 0 42.9812 3.50833 46.4917C7.01667 50.0021 12.6646 50 23.9583 50H26.0417C37.3354 50 42.9812 50 46.4917 46.4917C50 42.9833 50 37.3354 50 26.0417V23.9583C50 12.6646 50 7.01667 46.4917 3.50833ZM40.6312 35.4167H36.9854C35.5958 35.4167 35.1875 34.3083 32.7146 31.8354C30.55 29.75 29.6229 29.4792 29.0833 29.4792C28.3479 29.4792 28.1292 29.6875 28.1292 30.7292V33.9979C28.1292 34.8937 27.8437 35.4167 25.525 35.4167C21.6625 35.4167 17.4167 33.0708 14.4021 28.7458C9.88125 22.4104 8.64583 17.6208 8.64583 16.6562C8.64583 16.1146 8.85417 15.625 9.89583 15.625H13.5437C14.475 15.625 14.825 16.0333 15.175 17.0417C16.9583 22.2354 19.9667 26.775 21.2021 26.775C21.6646 26.775 21.8771 26.5604 21.8771 25.3854V20.0167C21.7417 17.5458 20.4271 17.3417 20.4271 16.4625C20.4271 16.0562 20.775 15.625 21.3542 15.625H27.0854C27.8583 15.625 28.1271 16.0375 28.1271 16.9646V24.1875C28.1271 24.9583 28.4625 25.2292 28.6937 25.2292C29.1583 25.2292 29.5437 24.9583 30.3937 24.1083C33.0208 21.1729 34.875 16.6542 34.875 16.6542C35.1083 16.1125 35.5333 15.6229 36.4625 15.6229H40.1083C41.2104 15.6229 41.4437 16.1896 41.2104 16.9625C40.7458 19.0875 36.3042 25.3437 36.3042 25.3437C35.9167 25.9625 35.7625 26.2708 36.3042 26.9667C36.6917 27.5083 37.9646 28.5896 38.8146 29.5937C40.3812 31.3562 41.5625 32.8417 41.8917 33.8667C42.1958 34.8958 41.6729 35.4167 40.6312 35.4167Z" fill="black"/>
</g>
<defs>
<clipPath id="clip0_32_9">
<rect width="50" height="50" fill="white"/>
</clipPath>
</defs>
</svg>
