<svg width="50" height="50" viewBox="0 0 50 50" fill="none" xmlns="http://www.w3.org/2000/svg">
<path fill-rule="evenodd" clip-rule="evenodd" d="M42.7172 7.26667C38.0155 2.58333 31.7647 0.00208333 25.1057 0C11.3837 0 0.215616 11.1125 0.209336 24.775C0.207243 29.1417 1.35441 33.4042 3.5336 37.1625L0 50L13.1966 46.5542C16.8327 48.5292 20.9274 49.5687 25.0932 49.5708H25.1036C38.8235 49.5708 49.9937 38.4562 50 24.7937C50.0042 18.175 47.4168 11.9479 42.7172 7.26667ZM25.1057 45.3854H25.0973C21.3837 45.3854 17.7434 44.3917 14.5656 42.5146L13.8099 42.0688L5.97865 44.1125L8.06992 36.5125L7.57798 35.7333C5.50555 32.4542 4.41281 28.6646 4.4149 24.775C4.41909 13.4208 13.7032 4.18333 25.1162 4.18333C30.6427 4.18333 35.8384 6.32917 39.7446 10.2208C43.6508 14.1146 45.8007 19.2875 45.7986 24.7896C45.7923 36.1479 36.5104 45.3854 25.1057 45.3854ZM36.4559 29.9625C35.8342 29.6521 32.7758 28.1542 32.2043 27.9479C31.6349 27.7417 31.2204 27.6375 30.8038 28.2562C30.3873 28.875 29.1982 30.2708 28.834 30.6854C28.4718 31.0979 28.1076 31.15 27.4859 30.8396C26.8641 30.5292 24.8587 29.8771 22.4827 27.7667C20.6343 26.125 19.3845 24.0979 19.0224 23.4771C18.6602 22.8562 18.9847 22.5229 19.2945 22.2146C19.575 21.9375 19.9163 21.4917 20.2282 21.1292C20.5422 20.7708 20.6448 20.5125 20.8541 20.0979C21.0613 19.6854 20.9588 19.3229 20.8018 19.0125C20.6448 18.7042 19.4013 15.6562 18.8842 14.4167C18.3797 13.2083 17.8669 13.3729 17.4838 13.3542C17.1216 13.3354 16.7071 13.3333 16.2906 13.3333C15.8761 13.3333 15.202 13.4875 14.6326 14.1083C14.0632 14.7292 12.4555 16.2271 12.4555 19.2729C12.4555 22.3208 14.6849 25.2646 14.9948 25.6771C15.3046 26.0896 19.3804 32.3437 25.6207 35.025C27.1049 35.6625 28.2646 36.0437 29.1668 36.3292C30.6573 36.8 32.0138 36.7333 33.0856 36.575C34.2809 36.3979 36.7657 35.0771 37.2849 33.6312C37.8041 32.1854 37.8041 30.9437 37.6471 30.6875C37.4921 30.4271 37.0777 30.2729 36.4559 29.9625Z" fill="black"/>
</svg>
